<?xml version="1.0" encoding="utf-8"?>
<!-- Generator: Adobe Illustrator 25.4.1, SVG Export Plug-In . SVG Version: 6.00 Build 0)  -->
<svg version="1.1" id="Layer_1" xmlns="http://www.w3.org/2000/svg" xmlns:xlink="http://www.w3.org/1999/xlink" x="0px" y="0px"
	 viewBox="0 0 512 512" style="enable-background:new 0 0 512 512;" xml:space="preserve">
<style type="text/css">
	.st0{fill:#4B4C48;}
</style>
<path class="st0" d="M394,480L394,480c-3.4,0-6.7-1.1-9.4-3L256,383.8L127.4,477v0c-7.2,5.2-17.2,3.6-22.3-3.6
	c-3.1-4.2-3.9-9.6-2.2-14.5L153,310.3L23,221.2l0,0c-7.3-5-9.2-15-4.2-22.2c3-4.4,7.9-6.9,13.1-7h160.4L240.8,43h0
	c2.7-8.4,11.7-13,20.2-10.3c4.9,1.6,8.7,5.4,10.3,10.3l48.4,149H480h0c8.8,0,16,7.1,16,16c0,5.3-2.6,10.2-7,13.2l-130.1,89.1
	l50.1,148.5l0,0c2.8,8.4-1.7,17.5-10,20.3C397.4,479.6,395.7,479.9,394,480L394,480z"/>
</svg>
